HIERARCHY
ROOT hip
{
  OFFSET 0 0 0
  CHANNELS 6 Xposition Yposition Zposition Zrotation Yrotation Xrotation
  JOINT abdomen
  {
    OFFSET 0 20.6881 -0.73152
    CHANNELS 3 Zrotation Xrotation Yrotation
    JOINT chest
    {
      OFFSET 0 11.7043 -0.48768
      CHANNELS 3 Zrotation Xrotation Yrotation
      JOINT neck
      {
        OFFSET 0 22.1894 -2.19456
        CHANNELS 3 Zrotation Xrotation Yrotation
        JOINT head
        {
          OFFSET -0.24384 7.07133 1.2192
          CHANNELS 3 Zrotation Xrotation Yrotation
          JOINT leftEye
          {
            OFFSET 4.14528 8.04674 8.04672
            CHANNELS 3 Zrotation Xrotation Yrotation
            End Site
            {
              OFFSET 1 0 0
            }
          }
          JOINT rightEye
          {
            OFFSET -3.6576 8.04674 8.04672
            CHANNELS 3 Zrotation Xrotation Yrotation
            End Site
            {
              OFFSET 1 0 0
            }
          }
        }
      }
      JOINT rCollar
      {
        OFFSET -2.68224 19.2634 -4.8768
        CHANNELS 3 Zrotation Xrotation Yrotation
        JOINT rShldr
        {
          OFFSET -8.77824 -1.95073 1.46304
          CHANNELS 3 Zrotation Xrotation Yrotation
          JOINT rForeArm
          {
            OFFSET -28.1742 -1.7115 0.48768
            CHANNELS 3 Zrotation Xrotation Yrotation
            JOINT rHand
            {
              OFFSET -22.5879 0.773209 7.07136
              CHANNELS 3 Zrotation Xrotation Yrotation
              JOINT rThumb1
              {
                OFFSET -1.2192 -0.487915 3.41376
                CHANNELS 3 Zrotation Xrotation Yrotation
                JOINT rThumb2
                {
                  OFFSET -3.37035 -0.52449 3.41376
                  CHANNELS 3 Zrotation Xrotation Yrotation
                  End Site
                  {
                    OFFSET -1.78271 -1.18214 1.43049
                  }
                }
              }
              JOINT rIndex1
              {
                OFFSET -7.75947 0.938293 5.60832
                CHANNELS 3 Zrotation Xrotation Yrotation
                JOINT rIndex2
                {
                  OFFSET -2.54057 -0.884171 1.56538
                  CHANNELS 3 Zrotation Xrotation Yrotation
                  End Site
                  {
                    OFFSET -1.62519 -0.234802 1.16502
                  }
                }
              }
              JOINT rMid1
              {
                OFFSET -8.24714 1.18213 3.41376
                CHANNELS 3 Zrotation Xrotation Yrotation
                JOINT rMid2
                {
                  OFFSET -3.10165 -0.590103 1.0647
                  CHANNELS 3 Zrotation Xrotation Yrotation
                  End Site
                  {
                    OFFSET -2.48547 -0.328903 0.83742
                  }
                }
              }
              JOINT rRing1
              {
                OFFSET -8.82822 0.546677 1.51678
                CHANNELS 3 Zrotation Xrotation Yrotation
                JOINT rRing2
                {
                  OFFSET -2.60934 -0.819778 -0.0198488
                  CHANNELS 3 Zrotation Xrotation Yrotation
                  End Site
                  {
                    OFFSET -2.33842 -0.294052 0.168128
                  }
                }
              }
              JOINT rPinky1
              {
                OFFSET -8.27202 -0.0477905 -0.4584
                CHANNELS 3 Zrotation Xrotation Yrotation
                JOINT rPinky2
                {
                  OFFSET -1.82734 -0.647385 -0.700984
                  CHANNELS 3 Zrotation Xrotation Yrotation
                  End Site
                  {
                    OFFSET -1.69225 -0.51767 -0.607171
                  }
                }
              }
            }
          }
        }
      }
      JOINT lCollar
      {
        OFFSET 2.68224 19.2634 -4.8768
        CHANNELS 3 Zrotation Xrotation Yrotation
        JOINT lShldr
        {
          OFFSET 8.77824 -1.95073 1.46304
          CHANNELS 3 Zrotation Xrotation Yrotation
          JOINT lForeArm
          {
            OFFSET 28.1742 -1.7115 0.48768
            CHANNELS 3 Zrotation Xrotation Yrotation
            JOINT lHand
            {
              OFFSET 22.5879 0.773209 7.07136
              CHANNELS 3 Zrotation Xrotation Yrotation
              JOINT lThumb1
              {
                OFFSET 1.2192 -0.487915 3.41376
                CHANNELS 3 Zrotation Xrotation Yrotation
                JOINT lThumb2
                {
                  OFFSET 3.37035 -0.52449 3.41376
                  CHANNELS 3 Zrotation Xrotation Yrotation
                  End Site
                  {
                    OFFSET 1.78271 -1.18214 1.43049
                  }
                }
              }
              JOINT lIndex1
              {
                OFFSET 7.75947 0.938293 5.60832
                CHANNELS 3 Zrotation Xrotation Yrotation
                JOINT lIndex2
                {
                  OFFSET 2.54057 -0.884171 1.56538
                  CHANNELS 3 Zrotation Xrotation Yrotation
                  End Site
                  {
                    OFFSET 1.62519 -0.234802 1.16502
                  }
                }
              }
              JOINT lMid1
              {
                OFFSET 8.24714 1.18213 3.41376
                CHANNELS 3 Zrotation Xrotation Yrotation
                JOINT lMid2
                {
                  OFFSET 3.10165 -0.590103 1.0647
                  CHANNELS 3 Zrotation Xrotation Yrotation
                  End Site
                  {
                    OFFSET 2.48547 -0.328903 0.83742
                  }
                }
              }
              JOINT lRing1
              {
                OFFSET 8.82822 0.546677 1.51678
                CHANNELS 3 Zrotation Xrotation Yrotation
                JOINT lRing2
                {
                  OFFSET 2.60934 -0.819778 -0.0198488
                  CHANNELS 3 Zrotation Xrotation Yrotation
                  End Site
                  {
                    OFFSET 2.33842 -0.294052 0.168128
                  }
                }
              }
              JOINT lPinky1
              {
                OFFSET 8.27202 -0.0477905 -0.4584
                CHANNELS 3 Zrotation Xrotation Yrotation
                JOINT lPinky2
                {
                  OFFSET 1.82734 -0.647385 -0.700984
                  CHANNELS 3 Zrotation Xrotation Yrotation
                  End Site
                  {
                    OFFSET 1.69225 -0.51767 -0.607171
                  }
                }
              }
            }
          }
        }
      }
    }
  }
  JOINT rButtock
  {
    OFFSET -8.77824 4.35084 1.2192
    CHANNELS 3 Zrotation Xrotation Yrotation
    JOINT rThigh
    {
      OFFSET 0 -1.70687 -2.19456
      CHANNELS 3 Zrotation Xrotation Yrotation
      JOINT rShin
      {
        OFFSET 0 -36.8199 0.73152
        CHANNELS 3 Zrotation Xrotation Yrotation
        JOINT rFoot
        {
          OFFSET 0.73152 -45.1104 -5.12064
          CHANNELS 3 Zrotation Xrotation Yrotation
          End Site
          {
            OFFSET -1.1221 -3.69964 12.103
          }
        }
      }
    }
  }
  JOINT lButtock
  {
    OFFSET 8.77824 4.35084 1.2192
    CHANNELS 3 Zrotation Xrotation Yrotation
    JOINT lThigh
    {
      OFFSET 0 -1.70687 -2.19456
      CHANNELS 3 Zrotation Xrotation Yrotation
      JOINT lShin
      {
        OFFSET 0 -36.8199 0.73152
        CHANNELS 3 Zrotation Xrotation Yrotation
        JOINT lFoot
        {
          OFFSET -0.73152 -45.1104 -5.12064
          CHANNELS 3 Zrotation Xrotation Yrotation
          End Site
          {
            OFFSET 1.1221 -3.69964 12.103
          }
        }
      }
    }
  }
}
MOTION
Frames:	4
Frame Time:	0.00833333
-120.943 68.3673 6.05811 -46.7625 78.9195 -24.1555 1.99202 28.4825 15.6885 -2.37191 -4.28296 4.47778 6.72743 -12.3251 1.7696 -7.42571 -10.8594 -0.355941 -0.0 0.0 0.0 -0.0 0.0 0.0 3.69557e-14 2.10962e-13 3.05709e-15 37.9173 36.8992 53.5295 -28.2636 -38.6396 81.5486 -0.558425 -20.679 -3.04196 1.63792e-10 9.61695e-10 3.84659e-10 2.77508e-10 1.66416e-09 6.65806e-10 1.63805e-10 9.61707e-10 3.8465e-10 7.73091 5.47488 0.417314 1.6379e-10 9.61698e-10 3.84664e-10 2.90554 0.965183 0.102902 1.63798e-10 9.61697e-10 3.84659e-10 10.2786 0.731801 0.0259123 1.6379e-10 9.61697e-10 3.84669e-10 2.22167 -0.733487 -0.20892 3.67364e-14 2.10967e-13 2.69291e-15 -125.31 47.1779 76.9015 25.6011 -22.4488 -55.2046 2.09817 -37.4768 6.18444 -1.43984e-10 9.41874e-11 -1.20189e-09 -2.10389e-10 1.70489e-10 -2.07956e-09 -1.43992e-10 9.41861e-11 -1.20186e-09 -7.73091 5.47488 -0.417314 -1.43984e-10 9.4189e-11 -1.20189e-09 -2.90554 0.965183 -0.102902 -1.4399e-10 9.41896e-11 -1.20189e-09 -10.2786 0.731801 -0.0259123 -1.43978e-10 9.41923e-11 -1.20189e-09 -2.22167 -0.733487 0.20892 -2.03217e-16 0.0 -3.88251e-19 4.83456 8.1696 -2.47694 0.167825 17.2631 1.80454 -3.39697 -30.907 -6.58261 2.03217e-16 0.0 3.88251e-19 64.9779 -59.581 66.7314 4.32759 79.2319 -5.31333 2.94884 -10.0429 7.2145
-119.372 68.4296 5.9083 -43.6272 78.7963 -20.3781 0.644459 27.7276 16.1992 -2.7744 -4.11861 4.52117 6.33226 -12.1293 1.4381 -6.3565 -11.1697 -0.720917 -0.0 0.0 0.0 -0.0 0.0 0.0 3.24908e-14 5.29085e-14 -2.8917e-14 37.4986 37.6973 52.4506 -28.1671 -39.4625 82.9489 -0.569808 -20.8673 -3.07251 3.58349e-12 7.14225e-10 3.4056e-10 1.87532e-12 1.23322e-09 5.86688e-10 3.59363e-12 7.14231e-10 3.40551e-10 7.73091 5.47488 0.417314 3.57887e-12 7.14231e-10 3.40569e-10 2.90554 0.965183 0.102902 3.58787e-12 7.14226e-10 3.40559e-10 10.2786 0.731801 0.0259123 3.58166e-12 7.14228e-10 3.4057e-10 2.22167 -0.733487 -0.20892 3.23058e-14 5.2912e-14 -2.92276e-14 -123.203 46.8444 75.9229 25.7039 -22.6954 -55.6034 1.95845 -36.4331 5.95293 -1.7964e-10 4.97295e-11 -4.40854e-10 -2.93889e-10 8.96425e-11 -7.66238e-10 -1.79646e-10 4.97271e-11 -4.40829e-10 -7.73091 5.47488 -0.417314 -1.79641e-10 4.97291e-11 -4.4085e-10 -2.90554 0.965183 -0.102902 -1.79645e-10 4.97301e-11 -4.40851e-10 -10.2786 0.731801 -0.0259123 -1.79635e-10 4.9732e-11 -4.40857e-10 -2.22167 -0.733487 0.20892 -2.03217e-16 0.0 -3.88251e-19 3.73736 8.33486 -1.87559 0.173595 17.4736 1.78808 -3.02788 -28.4306 -6.21511 2.03217e-16 0.0 3.88251e-19 60.3653 -59.2257 62.6715 3.91396 78.3315 -4.90878 3.01303 -11.0833 7.08764
-117.574 68.5684 5.66338 -39.7619 78.6053 -16.2367 -0.657791 27.052 16.5818 -3.15573 -3.98919 4.53863 5.90282 -11.8672 1.12185 -5.30218 -11.5927 -1.03766 -0.0 0.0 0.0 -0.0 0.0 0.0 3.76425e-14 1.01496e-13 -6.3851e-14 37.2246 38.7786 51.1517 -28.0598 -40.1595 84.1604 -0.562306 -20.7647 -3.05545 -1.42712e-10 3.53664e-10 2.29673e-10 -2.48833e-10 6.06719e-10 3.9252e-10 -1.42705e-10 3.53664e-10 2.29665e-10 7.73091 5.47488 0.417314 -1.42719e-10 3.53674e-10 2.29687e-10 2.90554 0.965183 0.102902 -1.4271e-10 3.53665e-10 2.29671e-10 10.2786 0.731801 0.0259123 -1.42714e-10 3.53668e-10 2.29684e-10 2.22167 -0.733487 -0.20892 3.74963e-14 1.01497e-13 -6.41018e-14 -120.873 46.7289 74.4497 25.7872 -22.8997 -55.9119 1.84733 -35.5456 5.76227 -2.16423e-10 5.98925e-13 3.36638e-10 -3.80104e-10 4.45109e-13 5.7535e-10 -2.16426e-10 5.95808e-13 3.36651e-10 -7.73091 5.47488 -0.417314 -2.16424e-10 5.96673e-13 3.36639e-10 -2.90554 0.965183 -0.102902 -2.16427e-10 5.98034e-13 3.36638e-10 -10.2786 0.731801 -0.0259123 -2.16418e-10 5.99144e-13 3.36629e-10 -2.22167 -0.733487 0.20892 -2.03217e-16 0.0 -3.88251e-19 2.72854 8.25118 -1.14795 0.178814 18.0893 1.76739 -2.8151 -25.6852 -6.16927 2.03217e-16 0.0 3.88251e-19 55.5867 -58.6741 58.4783 3.52828 77.3421 -4.52671 3.08659 -12.314 6.94899
-115.965 68.7154 5.35488 -36.1209 78.974 -12.107 -1.85262 26.4879 16.7959 -3.43702 -3.91477 4.52043 5.47588 -11.6328 0.864253 -4.40199 -12.0001 -1.25137 -0.0 0.0 0.0 -0.0 0.0 0.0 6.52599e-14 4.25995e-13 -6.98728e-14 37.1064 40.2276 49.6746 -27.9572 -40.6343 85.066 -0.540435 -20.4223 -2.9996 -1.64536e-10 3.32765e-12 2.47384e-11 -2.83443e-10 -9.66889e-13 3.76355e-11 -1.64531e-10 3.32368e-12 2.4732e-11 7.73091 5.47488 0.417314 -1.64545e-10 3.34087e-12 2.47574e-11 2.90554 0.965183 0.102902 -1.64535e-10 3.32875e-12 2.47368e-11 10.2786 0.731801 0.0259123 -1.64537e-10 3.33203e-12 2.47511e-11 2.22167 -0.733487 -0.20892 6.51472e-14 4.25995e-13 -7.00716e-14 -118.532 46.8413 72.6082 25.8683 -23.1014 -56.2264 1.80052 -35.1533 5.67982 -2.46848e-10 -2.00629e-11 6.43687e-10 -4.42035e-10 -3.70503e-11 1.10464e-09 -2.4685e-10 -2.00661e-11 6.43693e-10 -7.73091 5.47488 -0.417314 -2.46849e-10 -2.00662e-11 6.43687e-10 -2.90554 0.965183 -0.102902 -2.46852e-10 -2.00647e-11 6.43685e-10 -10.2786 0.731801 -0.0259123 -2.46842e-10 -2.00641e-11 6.43674e-10 -2.22167 -0.733487 0.20892 -2.03217e-16 0.0 -3.88251e-19 1.93275 7.86767 -0.331218 0.176923 19.209 1.73987 -2.69481 -22.7748 -6.37131 2.03217e-16 0.0 3.88251e-19 51.3093 -57.9842 54.8036 3.19637 76.3384 -4.18698 3.10066 -13.4579 6.68958
